<svg width="70" height="70" viewBox="0 0 70 70" fill="none" xmlns="http://www.w3.org/2000/svg">
<path d="M70 35C70 42.4998 67.5909 49.8013 63.1278 55.8285C58.6646 61.8558 52.3835 66.29 45.2098 68.4777C38.0362 70.6655 30.3496 70.4911 23.2825 67.9803C16.2155 65.4695 10.1419 60.755 5.95662 54.5316C1.77139 48.3081 -0.304094 40.9049 0.036006 33.4128C0.376106 25.9207 3.1138 18.736 7.84568 12.9174C12.5776 7.09872 19.0533 2.95392 26.3188 1.09371C33.5843 -0.766506 41.2551 -0.243735 48.201 2.58498L46.3502 7.12953C40.3782 4.6974 33.7827 4.24792 27.5359 5.84733C21.289 7.44674 15.7212 11.0104 11.6527 16.0133C7.58421 21.0162 5.23034 27.1936 4.93792 33.6353C4.6455 40.0771 6.43 46.4424 10.0285 51.7933C13.6269 57.1442 18.8491 61.1977 24.9253 63.3565C31.0015 65.5153 37.6105 65.6652 43.7784 63.7842C49.9463 61.9032 55.3469 58.0906 59.1843 52.9084C63.0217 47.7262 65.093 41.4484 65.093 35H70Z" fill="#0085FF"/>
</svg>
